<?xml version="1.0" encoding="utf-8"?>
<!-- Svg Vector Icons : http://www.onlinewebfonts.com/icon -->
<!DOCTYPE svg PUBLIC "-//W3C//DTD SVG 1.1//EN" "http://www.w3.org/Graphics/SVG/1.1/DTD/svg11.dtd">
<svg version="1.1" xmlns="http://www.w3.org/2000/svg" xmlns:xlink="http://www.w3.org/1999/xlink" x="0px" y="0px" viewBox="0 0 1000 1000" enable-background="new 0 0 1000 1000" xml:space="preserve">
<metadata> Svg Vector Icons : http://www.onlinewebfonts.com/icon </metadata>
<g><g transform="translate(0.000000,511.000000) scale(0.100000,-0.100000)"><path d="M4663.8,4967.1c-42.9-32.7-53.1-59.2-53.1-126.7v-85.8l-169.6-47c-349.3-96-735.4-331-980.6-596.5c-326.9-353.4-545.5-815.1-578.2-1225.8l-14.3-153.2l-138.9-132.8c-169.6-159.3-179.8-210.4-73.5-349.3c183.9-243.1,651.7-429,1301.3-518.9c322.8-44.9,1338.1-63.3,1720.2-32.7c790.6,67.4,1356.5,241.1,1607.8,492.3c175.7,175.7,167.5,253.3-36.8,408.6l-140.9,108.3l-12.3,138.9c-59.2,590.4-373.8,1148.1-858,1513.8c-187.9,143-508.7,302.3-710.9,355.5l-138.9,36.8v79.7c0,55.2-14.3,91.9-51.1,126.7c-47,49-59.2,51.1-333,51.1C4745.5,5010,4712.8,5005.9,4663.8,4967.1z"/><path d="M2980.4,1563.6c-157.3-226.8-122.6-757.9,77.6-1150.2c65.4-126.7,198.2-320.8,288.1-418.8c47-51.1,94-132.8,120.5-214.5c24.5-73.5,85.8-210.4,134.8-306.4c228.8-443.3,561.8-739.5,999-890.7c141-49,196.1-57.2,398.4-57.2c210.4,0,253.3,6.2,414.7,63.3c429,151.2,759.9,449.4,982.6,884.6c49,96,108.3,232.9,132.8,304.4c30.6,87.8,75.6,165.5,136.9,232.9c132.8,147.1,281.9,402.5,353.4,598.6c110.3,304.4,124.6,698.7,32.7,892.8c-57.2,122.6-73.5,128.7-241,79.7c-610.8-179.8-1622.1-267.6-2384.1-210.4c-422.9,32.7-935.7,112.4-1184.9,185.9c-112.4,34.7-206.3,61.3-212.5,61.3C3023.3,1618.7,3002.9,1594.2,2980.4,1563.6z"/><path d="M3217.4-988l-281.9-114.4v-1793.7v-1795.7l108.3-12.3c635.4-71.5,1789.6-104.2,2647.6-75.6c631.3,22.5,982.6,44.9,1264.6,75.6l106.2,12.3v1795.7v1793.7l-279.9,112.4l-281.9,114.4l-61.3-75.6c-228.8-284-459.7-474-735.5-606.8c-232.9-112.4-377.9-151.2-623.1-167.5c-341.2-20.4-674.2,75.6-994.9,284c-149.1,98.1-398.4,328.9-527.1,490.3l-61.3,75.6L3217.4-988z"/><path d="M1983.5-1523.3c-506.6-261.5-819.2-584.3-1060.3-1090.9c-110.3-232.9-220.6-561.8-277.8-817.2c-53.1-243.1-75.6-676.2-38.8-721.2c91.9-110.3,884.6-337.1,1558.7-445.4l55.2-8.2v1599.6c0,880.5-2,1601.7-4.1,1601.7C2212.3-1406.8,2108.1-1457.9,1983.5-1523.3z"/><path d="M7777.2-3006.4V-4606l261.5,45c449.4,81.7,762,163.4,1107.2,290.1c265.6,98.1,265.6,98.1,265.6,310.5c0,553.6-259.4,1329.9-594.5,1779.4c-210.4,284-471.9,492.3-849.8,682.3l-190,94V-3006.4z"/></g></g>
</svg>